{"title":"30 Minutes or Less 2011 1080p BluRay x264 DTS","uid":12667703,"size":8374893192,"categoryP":"video","categoryS":"hd___movies","magnet":"?xt=urn:btih:5b1e2b909e73d4e694bba1befd02895118045a1b&amp;dn=30+Minutes+or+Less+2011+1080p+BluRay+x264+DTS&amp;tr=udp%3A%2F%2Ftracker.leechers-paradise.org%3A6969&amp;tr=udp%3A%2F%2Fzer0day.ch%3A1337&amp;tr=udp%3A%2F%2Fopen.demonii.com%3A1337&amp;tr=udp%3A%2F%2Ftracker.coppersurfer.tk%3A6969&amp;tr=udp%3A%2F%2Fexodus.desync.com%3A6969","seeders":0,"leechers":1,"uploader":"TheRival","files":3,"time":1446390734,"description":"Screens: \nhttp://extraimago.com/image/Jan \nhttp://extraimago.com/image/Jas \nhttp://extraimago.com/image/Ja7 \nhttp://extraimago.com/image/Jac \nhttp://extraimago.com/image/Ja1\r\n\r\nVideo\r\nID                                       : 1\r\nFormat                                   : AVC\r\nFormat/Info                              : Advanced Video Codec\r\nFormat profile                           :   \r\nFormat settings, CABAC                   : Yes\r\nFormat settings, ReFrames                : 5 frames\r\nCodec ID                                 : V_MPEG4/ISO/AVC\r\nDuration                                 : 1h 23mn\r\nBit rate                                 : 11.9 Mbps\r\nWidth                                    : 1 920 pixels\r\nHeight                                   : 800 pixels\r\nDisplay aspect ratio                     : 2.40:1\r\nFrame rate mode                          : Constant\r\nFrame rate                               : 23.976 fps\r\nColor space                              : YUV\r\nChroma subsampling                       : 4:2:0\r\nBit depth                                : 8 bits\r\nScan type                                : Progressive\r\nBits/(Pixel*Frame)                       : 0.324\r\nStream size                              : 6.77 GiB (87%)\r\nWriting library                          : x264 core 116 r2074 2641b9e\r\nEncoding settings                        : cabac=1 / ref=5 / deblock=1:-3:-3 / analyse=0x3:0x133 / me=umh / subme=10 / psy=1 / psy_rd=1.05:0.10 / mixed_ref=1 / me_range=64 / chroma_me=1 / trellis=2 / 8x8dct=1 / cqm=0 / deadzone=21,11 / fast_pskip=0 / chroma_qp_offset=-3 / threads=9 / sliced_threads=0 / nr=0 / decimate=0 / interlaced=0 / bluray_compat=0 / constrained_intra=0 / bframes=8 / b_pyramid=2 / b_adapt=2 / b_bias=0 / direct=3 / weightb=1 / open_gop=0 / weightp=2 / keyint=360 / keyint_min=2 / scenecut=40 / intra_refresh=0 / rc_lookahead=120 / rc=2pass / mbtree=1 / bitrate=11935 / ratetol=1.0 / qcomp=0.70 / qpmin=0 / qpmax=69 / qpstep=4 / cplxblur=20.0 / qblur=0.5 / ip_ratio=1.40 / aq=2:1.00\r\nLanguage                                 : English\r\nDefault                                  : Yes\r\nForced                                   : No\r\n\r\nAudio\r\nID                                       : 2\r\nFormat                                   : DTS\r\nFormat/Info                              : Digital Theater Systems\r\nMode                                     : 16\r\nFormat settings, Endianness              : Big\r\nCodec ID                                 : A_DTS\r\nDuration                                 : 1h 23mn\r\nBit rate mode                            : Constant\r\nBit rate                                 : 1 509 Kbps\r\nChannel(s)                               : 6 channels\r\nChannel positions                        : Front: L C R, Side: L R, LFE\r\nSampling rate                            : 48.0 KHz\r\nBit depth                                : 24 bits\r\nCompression mode                         : Lossy\r\nDelay relative to video                  : 11ms\r\nStream size                              : 896 MiB (11%)\r\nLanguage                                 : English\r\nDefault                                  : Yes\r\nForced                                   : No\r\n\r\nText\r\nID                                       : 3\r\nFormat                                   : UTF-8\r\nCodec ID                                 : S_TEXT/UTF8\r\nCodec ID/Info                            : UTF-8 Plain Text\r\nLanguage                                 : English\r\nDefault                                  : No\r\nForced                                   : No\r\n\r\nMenu\r\n00:00:00.000                             : en:Chapter.01\r\n00:04:02.283                             : en:Chapter.02\r\n00:10:14.322                             : en:Chapter.03\r\n00:15:47.905                             : en:Chapter.04\r\n00:20:26.642                             : en:Chapter.05\r\n00:27:07.000                             : en:Chapter.06\r\n00:30:19.984                             : en:Chapter.07\r\n00:35:03.017                             : en:Chapter.08\r\n00:41:10.926                             : en:Chapter.09\r\n00:45:14.712                             : en:Chapter.10\r\n00:49:54.449                             : en:Chapter.11\r\n00:54:01.821                             : en:Chapter.12\r\n00:58:42.185                             : en:Chapter.13\r\n01:03:39.232                             : en:Chapter.14\r\n01:07:53.778                             : en:Chapter.15\r\n01:14:51.737                             : en:Chapter.16","torrent":{"xt":"urn:btih:5b1e2b909e73d4e694bba1befd02895118045a1b","amp;dn":"30+Minutes+or+Less+2011+1080p+BluRay+x264+DTS","amp;tr":["udp%3A%2F%2Ftracker.leechers-paradise.org%3A6969","udp%3A%2F%2Fzer0day.ch%3A1337","udp%3A%2F%2Fopen.demonii.com%3A1337","udp%3A%2F%2Ftracker.coppersurfer.tk%3A6969","udp%3A%2F%2Fexodus.desync.com%3A6969"],"infoHash":"5b1e2b909e73d4e694bba1befd02895118045a1b","infoHashBuffer":{"type":"Buffer","data":[91,30,43,144,158,115,212,230,148,187,161,190,253,2,137,81,24,4,90,27]},"announce":[],"urlList":[]}}